<svg xmlns="http://www.w3.org/2000/svg" viewBox="0 0 512 512"><defs><style>.cls-1{fill:#62ac8d;}.cls-2{fill:#76c27d;}.cls-3{fill:#db3a46;}.cls-4{fill:#a3323f;}.cls-5{fill:#fff;}.cls-6{fill:#313d74;}.cls-7{fill:#2c375f;}.cls-8{fill:#40518f;}.cls-9{fill:#aadee6;}.cls-10{fill:#93bfc2;}.cls-11{fill:#96663e;}.cls-12{fill:#7f5736;}.cls-13{fill:#d7932a;}.cls-14{fill:#ecc17a;}.cls-15{fill:#72392f;}.cls-16{fill:#dc7da7;}.cls-17{fill:#d4e85e;}.cls-18{fill:#f5db8f;}.cls-19{fill:#c6668f;}.cls-20{fill:#63332d;}.cls-21{fill:#c4759c;}.cls-22{fill:#c3d15a;}.cls-23{fill:#d7c082;}.cls-24{fill:#ae6085;}.cls-25{fill:#edd0d4;}.cls-26{fill:#9b3142;}.cls-27{fill:#75c07d;}.cls-28{fill:#64a268;}.cls-29{fill:#d93a46;}.cls-30{fill:#a1323f;}</style></defs><title>Food</title><g id="BULINE"><circle class="cls-1" cx="256" cy="256" r="256"/></g><g id="Icons"><path class="cls-2" d="M124.44,86.07c-5.38,0-9.75,6.3-10,14.21-6-4.77-13.42-5.53-16.9-1.57s-1.77,11.2,3.75,16.57c-.77-.06-1.56-.1-2.37-.09-8.22.17-14.79,4.79-14.68,10.32s6.87,9.87,15.09,9.71,14.79-4.79,14.67-10.32a7.32,7.32,0,0,0-1.37-4c3,.23,5.58-.57,7.28-2.5a7.16,7.16,0,0,0,1.57-3.18,7,7,0,0,0,3,.66c5.53,0,10-6.66,10-14.88S130,86.07,124.44,86.07Z"/><path class="cls-3" d="M108.55,150.17c8.11,12.48,29.85,23.79,42.33,15.68s11-32.57,2.87-45a27,27,0,1,0-45.2,29.37Z"/><path class="cls-4" d="M149.63,166.3C137,173.51,116,162.41,108,150.16a26.94,26.94,0,0,1,32.9-39.57,27.67,27.67,0,0,0-4.33,2.29,26.94,26.94,0,0,0-7.93,37.28C133,156.78,141.09,163.06,149.63,166.3Z"/><ellipse class="cls-5" cx="141.39" cy="129.4" rx="3.84" ry="5.82" transform="translate(-50.27 127.59) rotate(-41.92)"/><ellipse class="cls-5" cx="121.83" cy="144.76" rx="3.84" ry="5.82" transform="translate(-62.09 189.14) rotate(-63.48)"/><ellipse class="cls-5" cx="123.19" cy="121.32" rx="3.84" ry="5.82" transform="translate(-34.01 49.33) rotate(-19.96)"/><ellipse class="cls-5" cx="146.21" cy="149.79" rx="3.84" ry="5.82" transform="translate(-6.67 6.81) rotate(-2.61)"/><circle class="cls-6" cx="178.05" cy="145.92" r="18.59"/><path class="cls-7" d="M171.74,163.41a18.59,18.59,0,1,0,6.32-36.08,18.9,18.9,0,0,0-6.32,1.09,18.6,18.6,0,0,1,0,35Z"/><circle class="cls-8" cx="171.74" cy="141.94" r="6.31"/><path class="cls-9" d="M157,379.35a39,39,0,0,0,5.5,16.17H129.72c-.37-.6-.72-1.2-1.06-1.83a40.12,40.12,0,0,1-1.84-3.92c-.12-.3-.24-.61-.35-.91-.27-.69-.51-1.4-.73-2.12-.1-.31-.19-.62-.28-.93,0,0,0,0,0,0-.08-.31-.17-.63-.24-.95a1.17,1.17,0,0,1-.06-.2c-.06-.25-.13-.51-.18-.76s-.15-.65-.21-1-.09-.43-.13-.64-.09-.47-.12-.7-.11-.67-.15-1-.11-.79-.15-1.19L114,298.55l-.82-6.47-4.83-38.2-4.85-38.34h32.75l4.85,38.34,4.83,38.2,2.47,19.57,3.24,25.56Z"/><path class="cls-10" d="M162.46,395.52H129.72c-.37-.6-.72-1.2-1.06-1.83a40.12,40.12,0,0,1-1.84-3.92c-.12-.3-.24-.61-.35-.91-.27-.69-.51-1.4-.73-2.12-.1-.31-.19-.62-.28-.93,0,0,0,0,0,0-.08-.31-.17-.63-.24-.95a1.17,1.17,0,0,1-.06-.2c-.06-.25-.13-.51-.18-.76s-.15-.65-.21-1-.09-.43-.13-.64-.09-.47-.12-.7-.11-.67-.15-1-.11-.79-.15-1.19L114,298.55l-.82-6.47-4.83-38.2-4.85-38.34h32.75l4.85,38.34,4.83,38.2,2.47,19.57,3.24,25.56L157,379.35A39,39,0,0,0,162.46,395.52Z"/><path class="cls-9" d="M229.43,163.1l-6.63,52.44L202.08,379.35A39.15,39.15,0,0,1,182.79,409,21.56,21.56,0,0,1,173,437.06h7.7a29.57,29.57,0,0,1,29.55,29.55H116a29.55,29.55,0,0,1,29.55-29.55h7.69A21.56,21.56,0,0,1,143.5,409a39.12,39.12,0,0,1-19.29-29.65L103.49,215.54,96.86,163.1a5.69,5.69,0,0,1,5.64-6.41H223.79A5.69,5.69,0,0,1,229.43,163.1Z"/><path class="cls-11" d="M223.79,156.69H102.5a5.69,5.69,0,0,0-5.64,6.41l6.63,52.44h0l4.85,38.34H218l4.85-38.34h0l6.63-52.44A5.69,5.69,0,0,0,223.79,156.69Z"/><path class="cls-10" d="M173,437.06h5.3a29.55,29.55,0,0,0-29.55,29.55H116a29.55,29.55,0,0,1,29.55-29.55h7.7A21.56,21.56,0,0,1,143.5,409a39.12,39.12,0,0,1-19.29-29.65L96.86,163.1a5.69,5.69,0,0,1,5.64-6.41h32.75a5.69,5.69,0,0,0-5.64,6.41L157,379.35A39.12,39.12,0,0,0,176.25,409a21.54,21.54,0,0,0,3.27,22.91A21.69,21.69,0,0,1,173,437.06Z"/><path class="cls-12" d="M136.24,215.54l-6.59-52.44a5.86,5.86,0,0,1,6.1-6.41H103a5.87,5.87,0,0,0-6.1,6.41l6.63,52.44,4.85,38.34h32.75Z"/><path class="cls-13" d="M379.94,20.93,307.29,193.24a12.51,12.51,0,0,1-16.38,6.66,3.31,3.31,0,0,1-.33-.15,12.5,12.5,0,0,1-6.33-16.22L356.91,11.22a12.51,12.51,0,0,1,23.1.14,12.74,12.74,0,0,1,.93,4.7h0A12.47,12.47,0,0,1,379.94,20.93Z"/><path class="cls-14" d="M379.94,20.93,371.78,40.3,339,53.62l10.44-24.76,31.46-12.8A12.47,12.47,0,0,1,379.94,20.93Z"/><polygon class="cls-14" points="360.27 67.59 349.82 92.36 317.08 105.68 327.52 80.93 360.27 67.59"/><polygon class="cls-14" points="338.7 118.73 328.26 143.5 295.51 156.82 305.95 132.06 338.7 118.73"/><path class="cls-14" d="M317.88,168.13l-10.44,24.76-16.86,6.86a12.5,12.5,0,0,1-6.33-16.22l.87-2.07Z"/><path class="cls-13" d="M427.77,95,287.65,218.79A12.5,12.5,0,0,1,270,217.7a3.36,3.36,0,0,1-.24-.29,12.5,12.5,0,0,1,1.33-17.36L411.21,76.22A12.5,12.5,0,0,1,432,86.35,12.68,12.68,0,0,1,430.78,91h0A12.67,12.67,0,0,1,427.77,95Z"/><path class="cls-14" d="M427.77,95,412,108.87l-35.29-2.18L396.87,88.9,430.77,91A12.67,12.67,0,0,1,427.77,95Z"/><polygon class="cls-14" points="389.83 128.48 369.69 146.28 334.4 144.11 354.53 126.31 389.83 128.48"/><polygon class="cls-14" points="348.24 165.24 328.1 183.04 292.81 180.86 312.94 163.07 348.24 165.24"/><path class="cls-14" d="M308.07,200.74l-20.13,17.8-18.17-1.13a12.5,12.5,0,0,1,1.33-17.36l1.67-1.48Z"/><path class="cls-9" d="M360.91,163.1l-6.63,52.44L333.56,379.35A39.11,39.11,0,0,1,314.28,409a21.55,21.55,0,0,1-9.78,28.06h7.7a29.57,29.57,0,0,1,29.56,29.55H247.5a29.55,29.55,0,0,1,29.56-29.55h7.69A21.56,21.56,0,0,1,275,409a39.15,39.15,0,0,1-19.29-29.65L235,215.54l-6.63-52.44a5.7,5.7,0,0,1,5.65-6.41H355.27A5.69,5.69,0,0,1,360.91,163.1Z"/><path class="cls-10" d="M304.5,437.06h5.31a29.55,29.55,0,0,0-29.56,29.55H247.5a29.55,29.55,0,0,1,29.56-29.55h7.69A21.56,21.56,0,0,1,275,409a39.15,39.15,0,0,1-19.29-29.65L228.34,163.1a5.7,5.7,0,0,1,5.65-6.41h32.75a5.7,5.7,0,0,0-5.65,6.41l27.35,216.25A39.12,39.12,0,0,0,307.73,409,21.52,21.52,0,0,0,311,431.91,21.73,21.73,0,0,1,304.5,437.06Z"/><path class="cls-9" d="M288.44,379.35a39,39,0,0,0,5.5,16.17H261.2c-.36-.6-.71-1.2-1.05-1.83a40.18,40.18,0,0,1-1.85-3.92c-.12-.3-.24-.61-.35-.91-.26-.69-.5-1.4-.72-2.12-.11-.31-.2-.62-.28-.93,0,0,0,0,0,0-.09-.31-.18-.63-.25-.95a1.17,1.17,0,0,1-.05-.2c-.07-.25-.13-.51-.19-.76s-.14-.65-.21-1l-.12-.64c0-.24-.09-.47-.12-.7s-.12-.67-.16-1-.11-.79-.15-1.19l-10.21-80.8-.83-6.47-4.83-38.2L235,215.54h32.75l4.85,38.34,4.83,38.2,2.48,19.57,3.23,25.56Z"/><path class="cls-10" d="M293.94,395.52H261.2c-.36-.6-.71-1.2-1.05-1.83a40.18,40.18,0,0,1-1.85-3.92c-.12-.3-.24-.61-.35-.91-.26-.69-.5-1.4-.72-2.12-.11-.31-.2-.62-.28-.93,0,0,0,0,0,0-.09-.31-.18-.63-.25-.95a1.17,1.17,0,0,1-.05-.2c-.07-.25-.13-.51-.19-.76s-.14-.65-.21-1l-.12-.64c0-.24-.09-.47-.12-.7s-.12-.67-.16-1-.11-.79-.15-1.19l-10.21-80.8-.83-6.47-4.83-38.2L235,215.54h32.75l4.85,38.34,4.83,38.2,2.48,19.57,3.23,25.56,5.33,42.14A39,39,0,0,0,293.94,395.52Z"/><path class="cls-15" d="M338.89,337.21l-5.33,42.14a38.86,38.86,0,0,1-5.49,16.17H261.2a38.74,38.74,0,0,1-5.51-16.17l-5.33-42.14Z"/><polygon class="cls-16" points="344.6 292.08 338.89 337.21 250.37 337.21 244.65 292.08 344.6 292.08"/><polygon class="cls-17" points="349.43 253.88 344.6 292.08 244.65 292.08 239.82 253.88 349.43 253.88"/><polygon class="cls-18" points="354.28 215.54 349.43 253.88 239.82 253.88 234.97 215.54 354.28 215.54"/><polygon class="cls-19" points="344.6 292.08 342.13 311.65 247.13 311.65 244.65 292.08 344.6 292.08"/><path class="cls-20" d="M288.44,379.35a39,39,0,0,0,5.5,16.17H261.2c-.36-.6-.71-1.2-1.05-1.83a40.18,40.18,0,0,1-1.85-3.92c-.12-.3-.24-.61-.35-.91-.26-.69-.5-1.4-.72-2.12-.11-.31-.2-.62-.28-.93,0,0,0,0,0,0-.09-.31-.18-.63-.25-.95a1.17,1.17,0,0,1-.05-.2c-.07-.25-.13-.51-.19-.76s-.14-.65-.21-1l-.12-.64c0-.24-.09-.47-.12-.7s-.12-.67-.16-1-.11-.79-.15-1.19l-5.32-42.14h32.74Z"/><polygon class="cls-21" points="283.11 337.21 250.37 337.21 247.14 311.65 245.48 298.55 244.65 292.08 277.4 292.08 279.88 311.65 283.11 337.21"/><polygon class="cls-22" points="277.4 292.08 244.65 292.08 239.82 253.88 272.57 253.88 277.4 292.08"/><polygon class="cls-23" points="272.57 253.88 239.82 253.88 234.97 215.54 267.72 215.54 272.57 253.88"/><polygon class="cls-24" points="277.4 292.08 279.88 311.65 247.14 311.65 245.48 298.55 244.65 292.08 277.4 292.08"/><path class="cls-3" d="M252.87,248.52c4.19,5.67,14.8,10.42,20.48,6.22s4.28-15.72.09-21.4a12.78,12.78,0,1,0-20.57,15.18Z"/><path class="cls-3" d="M312,300.46c-3.55,6.1-3.7,17.72,2.4,21.27s16.14-2.31,19.69-8.41A12.78,12.78,0,0,0,312,300.46Z"/><path class="cls-3" d="M262.4,341.27c5.83,4,17.41,5,21.39-.88s-1.15-16.26-7-20.23a12.78,12.78,0,0,0-14.4,21.11Z"/><circle class="cls-6" cx="317.19" cy="264.26" r="14.91"/><path class="cls-7" d="M322.25,278.29a14.91,14.91,0,1,1,0-28.06,14.91,14.91,0,0,0,0,28.06Z"/><circle class="cls-8" cx="322.25" cy="261.06" r="5.06"/><path class="cls-5" d="M360.91,163.1l-6.63,52.44H235l-6.63-52.44a5.7,5.7,0,0,1,5.65-6.41H355.27A5.69,5.69,0,0,1,360.91,163.1Z"/><path class="cls-25" d="M267.68,215.54H235l-6.62-52.44a5.86,5.86,0,0,1,6.1-6.41h32.78a6.76,6.76,0,0,0-6.71,6.41Z"/><path class="cls-5" d="M337.86,128.05h-2.63a14.55,14.55,0,0,0,6.58-12.18v-3.59A14.58,14.58,0,0,0,327.23,97.7h-6.59a16.36,16.36,0,0,0-10.13-29.22H278.12A16.36,16.36,0,0,0,268,97.7h-6.59a14.57,14.57,0,0,0-14.57,14.58v3.59a14.52,14.52,0,0,0,6.58,12.18h-2.63a16.38,16.38,0,1,0,0,32.75h87.09a16.38,16.38,0,0,0,0-32.75Z"/><circle class="cls-6" cx="317.19" cy="122.42" r="17.05"/><path class="cls-7" d="M323,138.46a17.05,17.05,0,1,1,0-32.08,17,17,0,0,0,0,32.08Z"/><circle class="cls-8" cx="322.98" cy="118.77" r="5.78"/><path class="cls-3" d="M312.68,202.73c-4.26,5.63-5.81,17.14-.18,21.41s16.29-.35,20.56-6a12.78,12.78,0,0,0-20.38-15.43Z"/><circle class="cls-6" cx="262.27" cy="190.75" r="14.91"/><path class="cls-7" d="M267.33,204.79a15.25,15.25,0,0,1-5.07.87,14.91,14.91,0,1,1,5.07-28.94,14.92,14.92,0,0,0,0,28.07Z"/><circle class="cls-8" cx="267.33" cy="187.56" r="5.06"/><circle class="cls-23" cx="297.44" cy="231.48" r="6.39"/><circle class="cls-23" cx="335.86" cy="241.1" r="6.39"/><circle class="cls-22" cx="289.51" cy="267.46" r="6.39"/><circle class="cls-22" cx="334.24" cy="282.61" r="6.39"/><circle class="cls-19" cx="297.44" cy="326.44" r="6.39"/><circle class="cls-20" cx="302.46" cy="368.45" r="6.39"/><circle class="cls-20" cx="325.71" cy="350.9" r="6.39"/><path class="cls-25" d="M309.41,48.85H300a19.63,19.63,0,0,0-19.63,19.63h-2.06A16.36,16.36,0,0,0,268.12,97.7h-6.59A14.57,14.57,0,0,0,247,112.28v3.59a14.54,14.54,0,0,0,6.57,12.18h-2.62a16.38,16.38,0,1,0,0,32.75h30.52a16.38,16.38,0,0,1,0-32.75h2.63a14.53,14.53,0,0,1-6.59-12.18v-3.59A14.59,14.59,0,0,1,292.06,97.7h6.59a16.36,16.36,0,0,1,10.14-29.22h-5a7.75,7.75,0,0,0,7.74-7.74V51A2.15,2.15,0,0,0,309.41,48.85Z"/><path class="cls-3" d="M263,115.55c-4.26,5.62-5.81,17.14-.18,21.4s16.29-.34,20.55-6A12.78,12.78,0,0,0,263,115.55Z"/><path class="cls-3" d="M207.41,337.21l-5.33,42.14a38.73,38.73,0,0,1-5.5,16.17H129.71a38.87,38.87,0,0,1-5.5-16.17l-5.33-42.14Z"/><polygon class="cls-5" points="213.12 292.08 207.41 337.21 118.88 337.21 113.17 292.08 213.12 292.08"/><polygon class="cls-5" points="217.95 253.88 213.12 292.08 113.17 292.08 108.34 253.88 217.95 253.88"/><polygon class="cls-19" points="213.12 292.08 210.64 311.65 115.64 311.65 113.17 292.08 213.12 292.08"/><path class="cls-26" d="M157,379.35a39,39,0,0,0,5.5,16.17H129.72c-.37-.6-.72-1.2-1.06-1.83a40.12,40.12,0,0,1-1.84-3.92c-.12-.3-.24-.61-.35-.91-.27-.69-.51-1.4-.73-2.12-.1-.31-.19-.62-.28-.93,0,0,0,0,0,0-.08-.31-.17-.63-.24-.95a1.17,1.17,0,0,1-.06-.2c-.06-.25-.13-.51-.18-.76s-.15-.65-.21-1-.09-.43-.13-.64-.09-.47-.12-.7-.11-.67-.15-1-.11-.79-.15-1.19l-5.32-42.14h32.74Z"/><polygon class="cls-25" points="151.63 337.21 118.89 337.21 115.65 311.65 113.99 298.55 113.17 292.08 145.92 292.08 148.39 311.65 151.63 337.21"/><polygon class="cls-25" points="145.92 292.08 113.17 292.08 108.34 253.88 141.09 253.88 145.92 292.08"/><polygon class="cls-24" points="145.92 292.08 148.39 311.65 115.65 311.65 113.99 298.55 113.17 292.08 145.92 292.08"/><path class="cls-3" d="M120.9,260.15c4.19,5.68,14.8,10.42,20.48,6.23s4.28-15.73.09-21.41a12.78,12.78,0,0,0-20.57,15.18Z"/><circle class="cls-6" cx="185.71" cy="264.26" r="14.91"/><path class="cls-7" d="M190.77,278.29a14.91,14.91,0,1,1,0-28.06,14.91,14.91,0,0,0,0,28.06Z"/><circle class="cls-8" cx="190.77" cy="261.06" r="5.06"/><path class="cls-3" d="M181.2,202.73c-4.27,5.63-5.81,17.14-.19,21.41s16.3-.35,20.56-6a12.78,12.78,0,0,0-20.37-15.43Z"/><circle class="cls-6" cx="130.78" cy="190.75" r="14.91"/><path class="cls-7" d="M135.84,204.79a15.15,15.15,0,0,1-5.06.87,14.91,14.91,0,1,1,5.06-28.94,14.92,14.92,0,0,0,0,28.07Z"/><circle class="cls-8" cx="135.84" cy="187.56" r="5.06"/><circle class="cls-12" cx="165.96" cy="231.48" r="6.39"/><circle class="cls-12" cx="204.37" cy="241.1" r="6.39"/><circle class="cls-25" cx="158.02" cy="267.46" r="6.39"/><circle class="cls-25" cx="202.75" cy="282.61" r="6.39"/><circle class="cls-19" cx="165.96" cy="326.44" r="6.39"/><circle class="cls-19" cx="132.97" cy="322.81" r="6.39"/><circle class="cls-19" cx="138.17" cy="353.83" r="6.39"/><circle class="cls-26" cx="170.98" cy="368.45" r="6.39"/><circle class="cls-26" cx="194.23" cy="350.9" r="6.39"/><path class="cls-15" d="M401.56,466.61A254.77,254.77,0,0,1,257.33,512H256a254.91,254.91,0,0,1-145.56-45.39Z"/><path class="cls-27" d="M387,386.54c-4.31-5.1-13.8-4.18-21.48,1.93-.32-9.54-5.53-17.14-12.07-17.26s-12,7.31-12.7,16.86a25.79,25.79,0,0,0-1.82-2.33c-6.75-7.65-16.4-10.17-21.55-5.62s-3.84,14.43,2.91,22.08,16.41,10.17,21.56,5.63a9.12,9.12,0,0,0,2.72-4.55c2.15,3,5,4.83,8.21,4.89a8.78,8.78,0,0,0,4.27-1.06,8.7,8.7,0,0,0,1.75,3.32c4.44,5.24,14.35,4.14,22.14-2.46S391.41,391.78,387,386.54Z"/><path class="cls-28" d="M326.57,391c-3.77,3.33-4.09,9.52-1.32,15.61a26.53,26.53,0,0,1-5-4.4c-6.76-7.66-8.06-17.55-2.91-22.1s14.8-2,21.56,5.64a28.06,28.06,0,0,1,1.82,2.32c.65-9.54,6.15-17,12.69-16.86,5.06.1,9.31,4.66,11.14,11.14a8.3,8.3,0,0,0-1.92-.26c-6.55-.12-12,7.32-12.7,16.86a26.2,26.2,0,0,0-1.82-2.33C341.37,389,331.72,386.45,326.57,391Z"/><path class="cls-29" d="M313.5,422.93c-5.32,17.7,1.41,47.38,19.11,52.7s39.67-15.74,45-33.45a33.46,33.46,0,0,0-64.1-19.25Z"/><path class="cls-30" d="M331.18,474.8c-16.94-6.14-23.31-35-18.09-52.35a33.45,33.45,0,0,1,63.9-.59A33.5,33.5,0,0,0,329.66,442C326.84,451.38,327.4,464.1,331.18,474.8Z"/><ellipse class="cls-5" cx="370.63" cy="433.66" rx="5.54" ry="3.66" transform="translate(-109.34 741.96) rotate(-82.2)"/><ellipse class="cls-5" cx="320.95" cy="425.8" rx="5.54" ry="3.66" transform="translate(-192 571.4) rotate(-68.84)"/><ellipse class="cls-5" cx="336.86" cy="427.15" rx="5.54" ry="3.66" transform="translate(-183.09 587.1) rotate(-68.84)"/><ellipse class="cls-5" cx="356.72" cy="431.29" rx="5.54" ry="3.66" transform="translate(-106.32 745.71) rotate(-84.58)"/><ellipse class="cls-5" cx="360.39" cy="450.05" rx="5.54" ry="3.66" transform="translate(-134.43 745.99) rotate(-82.2)"/><ellipse class="cls-5" cx="322.34" cy="444.91" rx="5.54" ry="3.66" transform="matrix(0.36, -0.93, 0.93, 0.36, -208.93, 584.91)"/><ellipse class="cls-5" cx="341.23" cy="446.42" rx="5.54" ry="3.66" transform="translate(-171.24 676.87) rotate(-76.82)"/><ellipse class="cls-5" cx="342.31" cy="410.55" rx="5.54" ry="3.66" transform="translate(-184.03 503.83) rotate(-60.23)"/><ellipse class="cls-5" cx="357.13" cy="412.75" rx="3.66" ry="5.54" transform="matrix(1, 0, 0, 1, -0.87, 0.75)"/><ellipse class="cls-5" cx="328.11" cy="463.66" rx="3.66" ry="5.54" transform="translate(-154.58 164.24) rotate(-22.9)"/><ellipse class="cls-5" cx="348.42" cy="466.22" rx="5.54" ry="3.66" transform="translate(-227.32 551.56) rotate(-61.66)"/><circle class="cls-6" cx="386.6" cy="449.45" r="20.64"/><path class="cls-7" d="M387.84,470.07a21,21,0,0,1-7.07-.81,20.65,20.65,0,1,1,18-36.47,20.65,20.65,0,0,0-11,37.28Z"/><circle class="cls-8" cx="394.57" cy="447.18" r="7"/></g></svg>